<svg width="60" height="60" viewBox="0 0 60 60" fill="none" xmlns="http://www.w3.org/2000/svg">
<path d="M3.29051 0.221849C3.17111 0.327981 3.07825 0.59331 3.07825 0.805574C3.07825 1.3893 3.48951 1.60156 4.60389 1.60156C5.70501 1.60156 6.12954 1.3893 6.12954 0.81884C6.12954 0.195316 5.78461 0.00958526 4.56409 0.00958526C3.7681 0.00958526 3.43644 0.0626512 3.29051 0.221849Z" fill="#807C79"/>
<path d="M9.39304 0.301448C9.11444 0.699442 9.12771 1.01784 9.4461 1.33623C9.67163 1.56176 9.8839 1.60156 10.7462 1.60156C11.6616 1.60156 11.8208 1.56176 12.0729 1.29643C12.4178 0.924972 12.4311 0.699442 12.1525 0.301448C11.9667 0.0361183 11.8341 0.00958526 10.7728 0.00958526C9.71143 0.00958526 9.57877 0.0361183 9.39304 0.301448Z" fill="#807C79"/>
<path d="M15.6415 0.248382C15.5089 0.381047 15.416 0.646376 15.416 0.845373C15.416 1.37603 15.8538 1.60156 16.9417 1.60156C18.0428 1.60156 18.4673 1.3893 18.4673 0.81884C18.4673 0.195316 18.1224 0.00958526 16.9151 0.00958526C16.0528 0.00958526 15.814 0.0493847 15.6415 0.248382Z" fill="#807C79"/>
<path d="M21.784 0.274915C21.4523 0.606577 21.4523 0.81884 21.7972 1.25663C22.0493 1.57503 22.1422 1.60156 23.1239 1.60156C23.9995 1.60156 24.2117 1.56176 24.4373 1.33623C24.7557 1.01784 24.7689 0.699442 24.4903 0.301448C24.3046 0.0361183 24.1719 0.00958526 23.1637 0.00958526C22.2218 0.00958526 22.0095 0.0493847 21.784 0.274915Z" fill="#807C79"/>
<path d="M27.9793 0.248382C27.6742 0.580044 27.7007 1.01784 28.0191 1.33623C28.2314 1.5485 28.4569 1.60156 29.2263 1.60156C30.2611 1.60156 30.6326 1.4689 30.7918 1.0311C30.9112 0.739241 30.7653 0.288181 30.4867 0.115717C30.4071 0.0626512 29.8631 0.00958526 29.2661 0.00958526C28.3906 0.00958526 28.1518 0.0493847 27.9793 0.248382Z" fill="#807C79"/>
<path d="M34.2013 0.183725C33.8564 0.435789 33.8829 1.07258 34.2544 1.36444C34.6922 1.72264 36.4036 1.70937 36.775 1.33791C37.1067 1.00625 37.1199 0.515387 36.8015 0.236791C36.4832 -0.0550711 34.5595 -0.081604 34.2013 0.183725Z" fill="#807C79"/>
<path d="M40.3039 0.301448C40.0253 0.699442 40.0386 1.01784 40.357 1.33623C40.5825 1.56176 40.7948 1.60156 41.6704 1.60156C42.6521 1.60156 42.745 1.57503 42.997 1.25663C43.3419 0.81884 43.3419 0.606577 43.0103 0.274915C42.7848 0.0493847 42.5725 0.00958526 41.6306 0.00958526C40.6223 0.00958526 40.4897 0.0361183 40.3039 0.301448Z" fill="#807C79"/>
<path d="M46.5524 0.248382C46.4198 0.381047 46.3269 0.646376 46.3269 0.845373C46.3269 1.37603 46.7647 1.60156 47.8525 1.60156C48.9537 1.60156 49.3782 1.3893 49.3782 0.81884C49.3782 0.195316 49.0333 0.00958526 47.826 0.00958526C46.9637 0.00958526 46.7249 0.0493847 46.5524 0.248382Z" fill="#807C79"/>
<path d="M52.6417 0.301448C52.3499 0.712709 52.3764 0.978038 52.7346 1.3097C52.9999 1.56176 53.1989 1.60156 54.0612 1.60156C54.9103 1.60156 55.1225 1.56176 55.3481 1.33623C55.6665 1.01784 55.6797 0.699442 55.4011 0.301448C55.2154 0.0361183 55.0827 0.00958526 54.0214 0.00958526C52.9601 0.00958526 52.8274 0.0361183 52.6417 0.301448Z" fill="#807C79"/>
<path d="M58.1872 1.93662C57.9882 2.24175 57.9882 2.30808 58.1872 2.79894C58.3065 3.09081 58.3994 3.51533 58.3994 3.7276C58.3994 4.16539 58.7974 4.65625 59.1689 4.65625C59.3015 4.65625 59.5403 4.56338 59.6995 4.44399C59.9251 4.28479 59.9914 4.11232 59.9914 3.62146C59.9914 2.99794 59.5801 1.89682 59.2883 1.71109C58.9433 1.49883 58.4127 1.60496 58.1872 1.93662Z" fill="#807C79"/>
<path d="M0.252406 3.03962C-0.0792564 3.41108 -0.0659899 5.32145 0.265672 5.62658C0.6106 5.94498 1.16779 5.90518 1.40659 5.56025C1.72498 5.10919 1.69845 3.31821 1.38006 3.02635C1.06166 2.73449 0.517735 2.74776 0.252406 3.03962Z" fill="#807C79"/>
<path d="M3.83442 3.70446C3.62215 3.93005 3.60889 4.97842 3.60889 15.9664C3.60889 27.432 3.62215 27.9894 3.84768 28.1885C4.07321 28.4008 5.12127 28.4141 16.1059 28.4141C27.5681 28.4141 28.1253 28.4008 28.3243 28.1752C28.5366 27.9496 28.5499 26.9012 28.5499 15.9133C28.5499 4.4476 28.5366 3.89024 28.3111 3.69118C28.0855 3.47886 27.0375 3.46559 16.0528 3.46559C4.59061 3.46559 4.03341 3.47886 3.83442 3.70446ZM26.9579 15.9398V26.8216H16.013H5.0682V15.9398V5.05804H16.013H26.9579V15.9398Z" fill="#807C79"/>
<path d="M31.694 3.70446C31.4818 3.93005 31.4685 4.97842 31.4685 15.9664C31.4685 27.432 31.4818 27.9894 31.7073 28.1885C31.9328 28.4008 32.9809 28.4141 43.9655 28.4141C55.4278 28.4141 55.985 28.4008 56.184 28.1752C56.3962 27.9496 56.4095 26.9012 56.4095 15.9133C56.4095 4.4476 56.3962 3.89024 56.1707 3.69118C55.9452 3.47886 54.8971 3.46559 43.9125 3.46559C32.4502 3.46559 31.893 3.47886 31.694 3.70446ZM54.9502 15.9398V26.8216H44.0053H33.0605V15.9398V5.05804H44.0053H54.9502V15.9398Z" fill="#807C79"/>
<path d="M58.6117 7.99839C58.4657 8.19738 58.3994 8.59538 58.3994 9.23217C58.3994 10.3466 58.6117 10.7578 59.1954 10.7578C59.8455 10.7578 59.9914 10.4792 59.9914 9.24543C59.9914 8.34331 59.9516 8.10452 59.7526 7.93205C59.4077 7.61366 58.8505 7.65346 58.6117 7.99839Z" fill="#807C79"/>
<path d="M0.318779 9.11286C0.0534495 9.29859 0.0269165 9.43125 0.0269165 10.4926C0.0269165 11.5539 0.0534495 11.6866 0.318779 11.8723C0.716773 12.1509 1.03517 12.1376 1.35356 11.8192C1.57909 11.5937 1.61889 11.3814 1.61889 10.4926C1.61889 9.60371 1.57909 9.39145 1.35356 9.16592C1.03517 8.84753 0.716773 8.83426 0.318779 9.11286Z" fill="#807C79"/>
<path d="M58.7576 14.0871C58.4259 14.3391 58.3994 14.432 58.3994 15.4137C58.3994 16.2893 58.4392 16.5016 58.6647 16.7271C58.9964 17.0588 59.4873 17.072 59.7659 16.7536C60.0445 16.4485 60.0843 14.5116 59.8322 14.1799C59.5403 13.8218 59.1291 13.782 58.7576 14.0871Z" fill="#807C79"/>
<path d="M0.252383 15.3758C-0.0660122 15.7208 -0.0660122 17.6709 0.239117 17.9761C0.544246 18.2945 1.16777 18.2414 1.40657 17.8965C1.69843 17.4852 1.69843 15.8402 1.40657 15.4289C1.1545 15.0707 0.557512 15.0442 0.252383 15.3758Z" fill="#807C79"/>
<path d="M58.6647 20.3114C58.4392 20.537 58.3994 20.7492 58.3994 21.6248C58.3994 22.6065 58.4259 22.6994 58.7576 22.9515C59.1291 23.2566 59.5403 23.2168 59.8322 22.8586C59.9251 22.7259 59.9914 22.2351 59.9914 21.5717C59.9914 20.6829 59.9516 20.4441 59.7526 20.2716C59.4209 19.9665 58.9831 19.993 58.6647 20.3114Z" fill="#807C79"/>
<path d="M0.292218 21.5142C-0.0792438 21.8857 -0.105777 23.8756 0.265685 24.2073C0.597347 24.5124 1.03514 24.4859 1.35354 24.1675C1.57907 23.942 1.61887 23.7297 1.61887 22.8541C1.61887 21.8724 1.59233 21.7795 1.27394 21.5275C0.836143 21.1825 0.623879 21.1825 0.292218 21.5142Z" fill="#807C79"/>
<path d="M58.6117 26.5843C58.4657 26.7833 58.3994 27.1813 58.3994 27.8181C58.3994 28.9192 58.6117 29.3438 59.1821 29.3438C59.8057 29.3438 59.9914 28.9988 59.9914 27.7783C59.9914 26.9823 59.9383 26.6507 59.7791 26.5047C59.474 26.1863 58.8505 26.2394 58.6117 26.5843Z" fill="#807C79"/>
<path d="M0.252494 27.725C-0.0261019 28.0302 -0.0659013 29.9671 0.199428 30.2987C0.504557 30.6967 0.929085 30.71 1.28728 30.3518C1.57914 30.0599 1.61894 29.914 1.61894 29.0119C1.61894 28.1894 1.56588 27.9638 1.35361 27.7516C1.02195 27.4199 0.53109 27.4066 0.252494 27.725Z" fill="#807C79"/>
<path d="M3.82115 31.8107C3.63542 31.9965 3.60889 33.2838 3.60889 44.0726C3.60889 54.8615 3.63542 56.1488 3.82115 56.3345C4.00688 56.5203 5.29373 56.5469 16.0661 56.5469C27.5681 56.5469 28.1253 56.5336 28.3243 56.308C28.5366 56.0824 28.5499 55.034 28.5499 44.0461C28.5499 32.5804 28.5366 32.0231 28.3111 31.824C28.0855 31.6249 27.5416 31.5984 23.1371 31.5984C17.7377 31.5984 17.804 31.5851 17.804 32.3946C17.804 33.1643 17.9499 33.1909 22.6728 33.1909H26.9579V44.0726V54.9544H16.0794H5.20086V44.0726V33.1909H9.48594C14.1955 33.1909 14.3547 33.1643 14.3547 32.4079C14.3547 31.5984 14.368 31.5984 8.94201 31.5984C4.64367 31.5984 3.99361 31.6249 3.82115 31.8107Z" fill="#807C79"/>
<path d="M58.6647 32.6586C58.4392 32.8841 58.3994 33.0964 58.3994 33.9587C58.3994 34.8741 58.4392 35.0333 58.7045 35.2854C59.0893 35.6435 59.3811 35.6568 59.7261 35.3119C59.9516 35.0864 59.9914 34.8741 59.9914 33.9322C59.9914 32.9239 59.9649 32.7913 59.6995 32.6055C59.3015 32.3269 58.9831 32.3402 58.6647 32.6586Z" fill="#807C79"/>
<path d="M0.239173 33.9271C-0.0924885 34.2455 -0.0659555 36.2488 0.265706 36.5406C0.610635 36.859 1.16783 36.8192 1.40662 36.4743C1.69849 36.0631 1.69849 34.418 1.40662 34.0067C1.16783 33.6618 0.544302 33.6088 0.239173 33.9271Z" fill="#807C79"/>
<path d="M50.6517 35.0953C50.2537 35.2412 48.8608 36.555 44.841 40.576L39.561 45.8443L37.9425 44.2519C37.0403 43.3628 36.125 42.54 35.8862 42.4206C35.6341 42.3011 35.1432 42.2082 34.6789 42.2082C34.0554 42.2082 33.7901 42.2879 33.2992 42.5931C32.2644 43.2566 31.8399 44.6898 32.3307 45.8842C32.5828 46.4681 37.3985 51.3781 38.168 51.8293C38.8976 52.254 39.415 52.3336 40.1712 52.1478C40.7948 52.0018 41.1397 51.6701 47.2953 45.5391C54.3266 38.5323 54.247 38.6119 54.1276 37.2849C53.9684 35.6261 52.2039 34.5246 50.6517 35.0953ZM52.3366 36.9133C52.456 37.0726 52.5621 37.3778 52.5621 37.6034C52.5621 37.975 51.8855 38.7048 46.3667 44.2386C42.9439 47.6624 40.0253 50.5156 39.8528 50.5819C39.2956 50.7942 38.7517 50.3828 36.2178 47.8216C33.8829 45.4728 33.7237 45.2737 33.7237 44.8225C33.7237 44.1723 34.0952 43.8007 34.7452 43.8007C35.1963 43.8007 35.382 43.9467 37.2393 45.7913C38.7119 47.251 39.3222 47.7818 39.561 47.7818C39.813 47.7818 41.206 46.4548 45.5442 42.1286C51.1426 36.5418 51.2222 36.4621 51.66 36.555C51.8988 36.5948 52.2039 36.7674 52.3366 36.9133Z" fill="#807C79"/>
<path d="M58.6117 38.9124C58.4657 39.1114 58.3994 39.5094 58.3994 40.1462C58.3994 41.2473 58.6117 41.6719 59.1821 41.6719C59.8057 41.6719 59.9914 41.3269 59.9914 40.1197C59.9914 39.2574 59.9516 39.0186 59.7526 38.8461C59.4077 38.5277 58.8505 38.5675 58.6117 38.9124Z" fill="#807C79"/>
<path d="M0.318779 40.0309C0.0534495 40.2166 0.0269165 40.3493 0.0269165 41.3575C0.0269165 42.2995 0.0667159 42.5117 0.292246 42.7373C0.623908 43.0689 0.836172 43.0689 1.27397 42.724C1.59236 42.4719 1.61889 42.3791 1.61889 41.3973C1.61889 40.5218 1.57909 40.3095 1.35356 40.084C1.03517 39.7656 0.716773 39.7523 0.318779 40.0309Z" fill="#807C79"/>
<path d="M58.7443 45.0151C58.4259 45.2672 58.3994 45.3601 58.3994 46.3418C58.3994 47.2174 58.4392 47.4296 58.6647 47.6552C58.9831 47.9735 59.3015 47.9868 59.6995 47.7082C59.9649 47.5225 59.9914 47.3898 59.9914 46.3816C59.9914 45.4397 59.9516 45.2274 59.7261 45.0019C59.3944 44.6702 59.1821 44.6702 58.7443 45.0151Z" fill="#807C79"/>
<path d="M0.252406 46.3052C-0.0792564 46.6767 -0.0659899 48.5871 0.265672 48.8922C0.6106 49.2106 1.16779 49.1708 1.40659 48.8259C1.69845 48.4146 1.69845 46.7696 1.40659 46.3583C1.15453 46.0001 0.557535 45.9736 0.252406 46.3052Z" fill="#807C79"/>
<path d="M58.6117 51.2651C58.3596 51.61 58.3198 53.2285 58.5454 53.6398C58.8107 54.1572 59.5669 54.1837 59.8853 53.7061C59.9383 53.6265 59.9914 53.0826 59.9914 52.4856C59.9914 51.61 59.9516 51.3712 59.7526 51.1987C59.4077 50.8803 58.8505 50.9201 58.6117 51.2651Z" fill="#807C79"/>
<path d="M0.292246 52.4315C0.0667159 52.6571 0.0269165 52.8693 0.0269165 53.8113C0.0269165 54.8195 0.0534495 54.9522 0.318779 55.1379C0.716773 55.4165 1.03517 55.4032 1.35356 55.0848C1.57909 54.8593 1.61889 54.647 1.61889 53.7847C1.61889 52.8693 1.57909 52.7101 1.31376 52.4581C0.929037 52.0999 0.637174 52.0866 0.292246 52.4315Z" fill="#807C79"/>
<path d="M57.6166 57.8456C56.7675 58.6416 56.6349 59.0131 57.0461 59.358C57.4706 59.7162 57.6962 59.7162 58.3064 59.3447C59.3545 58.6681 59.8055 57.6599 59.2484 57.2486C58.8106 56.9302 58.4524 57.0629 57.6166 57.8456Z" fill="#807C79"/>
<path d="M1.77805 58.0287C1.43312 58.2012 1.26066 58.7451 1.44639 59.0503C1.64539 59.3952 2.9455 59.9922 3.48943 59.9922C4.02008 59.9922 4.40481 59.6473 4.40481 59.1697C4.40481 58.838 3.94049 58.4002 3.58229 58.4002C3.40983 58.3869 3.03837 58.2808 2.7465 58.1349C2.13624 57.843 2.17604 57.843 1.77805 58.0287Z" fill="#807C79"/>
<path d="M7.748 58.6125C7.38981 58.8645 7.36328 59.4615 7.69494 59.7667C7.88067 59.9391 8.19906 59.9922 9.02159 59.9922C10.2156 59.9922 10.5074 59.833 10.5074 59.1962C10.5074 58.6125 10.0962 58.4002 8.98179 58.4002C8.345 58.4002 7.947 58.4665 7.748 58.6125Z" fill="#807C79"/>
<path d="M13.8374 58.7584C13.5322 59.1299 13.572 59.5411 13.9302 59.8197C14.0629 59.9259 14.5538 59.9922 15.2171 59.9922C16.3978 59.9922 16.7427 59.8197 16.7427 59.2227C16.7427 58.6257 16.3049 58.4002 15.164 58.4002C14.1823 58.4002 14.0894 58.4267 13.8374 58.7584Z" fill="#807C79"/>
<path d="M20.0593 58.6669C19.7277 58.9986 19.7144 59.4894 20.0328 59.768C20.3379 60.0466 22.2748 60.0864 22.6065 59.8211C22.9647 59.5425 23.0045 59.1312 22.6994 58.7598C22.4473 58.4281 22.3544 58.4016 21.3727 58.4016C20.4971 58.4016 20.2849 58.4414 20.0593 58.6669Z" fill="#807C79"/>
<path d="M26.3211 58.6125C25.9761 58.8513 25.9231 59.4748 26.2415 59.7799C26.3874 59.9391 26.719 59.9922 27.5416 59.9922C28.7621 59.9922 29.0805 59.8197 29.0805 59.1564C29.0805 58.6257 28.6427 58.4002 27.5548 58.4002C26.918 58.4002 26.52 58.4665 26.3211 58.6125Z" fill="#807C79"/>
<path d="M32.3971 58.6655C32.0787 58.9839 32.0654 59.3023 32.344 59.7003C32.5298 59.9657 32.6624 59.9922 33.7237 59.9922C34.7851 59.9922 34.9177 59.9657 35.1035 59.7003C35.382 59.3023 35.3688 58.9839 35.0504 58.6655C34.8249 58.44 34.6126 58.4002 33.7237 58.4002C32.8349 58.4002 32.6226 58.44 32.3971 58.6655Z" fill="#807C79"/>
<path d="M38.6589 58.6125C38.3007 58.8645 38.2742 59.4615 38.6058 59.7667C38.7916 59.9391 39.11 59.9922 39.9325 59.9922C41.1265 59.9922 41.4183 59.833 41.4183 59.1962C41.4183 58.6125 41.0071 58.4002 39.8927 58.4002C39.2559 58.4002 38.8579 58.4665 38.6589 58.6125Z" fill="#807C79"/>
<path d="M44.7481 58.7451C44.4032 59.1829 44.4032 59.3952 44.7348 59.7269C44.9604 59.9524 45.1726 59.9922 46.1146 59.9922C47.1228 59.9922 47.2555 59.9657 47.4412 59.7003C47.7198 59.3023 47.7065 58.9839 47.3881 58.6655C47.1626 58.44 46.9503 58.4002 46.0748 58.4002C45.093 58.4002 45.0002 58.4267 44.7481 58.7451Z" fill="#807C79"/>
<path d="M50.9702 58.6669C50.6385 58.9986 50.6252 59.4894 50.9436 59.768C51.2488 60.0466 53.1857 60.0864 53.5173 59.8211C53.9153 59.516 53.9286 59.0914 53.5704 58.7332C53.2785 58.4414 53.1326 58.4016 52.2305 58.4016C51.408 58.4016 51.1824 58.4546 50.9702 58.6669Z" fill="#807C79"/>
</svg>
