<?xml version="1.0" standalone="no"?>
<!DOCTYPE svg PUBLIC "-//W3C//DTD SVG 20010904//EN"
 "http://www.w3.org/TR/2001/REC-SVG-20010904/DTD/svg10.dtd">
<svg version="1.0" xmlns="http://www.w3.org/2000/svg"
 width="512.000000pt" height="512.000000pt" viewBox="0 0 512.000000 512.000000"
 preserveAspectRatio="xMidYMid meet">

<g transform="translate(0.000000,512.000000) scale(0.100000,-0.100000)"
fill="#000000" stroke="none">
<path d="M2046 4250 c-403 -64 -725 -355 -811 -733 -21 -93 -31 -117 -49 -117
-34 0 -195 -93 -254 -145 -162 -147 -245 -335 -245 -555 0 -358 261 -664 615
-720 110 -18 165 -10 200 29 44 49 35 131 -19 166 -12 9 -56 20 -97 25 -134
17 -229 64 -319 159 -264 277 -136 742 233 841 93 25 130 62 130 132 0 49 27
166 52 228 91 227 290 399 526 457 92 22 257 21 347 -2 146 -37 244 -94 368
-214 73 -71 82 -76 120 -75 30 0 59 11 102 38 214 132 489 94 655 -91 96 -106
130 -206 130 -378 0 -145 10 -160 126 -191 179 -46 314 -194 345 -376 22 -133
-25 -281 -123 -384 -29 -31 -72 -67 -96 -81 -55 -33 -153 -63 -203 -63 -51 0
-102 -21 -123 -51 -9 -13 -16 -43 -16 -67 0 -37 6 -50 34 -78 40 -40 76 -43
199 -20 442 85 682 565 487 971 -71 147 -180 254 -332 325 l-65 30 -11 95
c-32 259 -179 472 -402 585 -191 96 -423 104 -622 20 l-68 -28 -42 38 c-110
96 -263 174 -410 210 -96 24 -276 33 -362 20z"/>
<path d="M1893 2165 c-17 -7 -38 -24 -47 -37 -8 -13 -81 -159 -161 -324 -161
-334 -166 -351 -116 -406 25 -28 36 -33 75 -33 35 0 51 6 70 25 32 32 326 643
326 676 0 77 -77 129 -147 99z"/>
<path d="M2605 2166 c-16 -7 -37 -22 -46 -32 -9 -11 -82 -156 -162 -324 -163
-339 -168 -356 -118 -412 25 -28 36 -33 75 -33 35 0 51 6 70 25 29 29 315 620
323 666 13 78 -69 141 -142 110z"/>
<path d="M3324 2173 c-12 -2 -33 -16 -47 -31 -35 -38 -318 -629 -320 -669 -3
-95 118 -149 180 -80 26 28 323 646 323 671 0 66 -69 122 -136 109z"/>
<path d="M1427 1225 c-50 -17 -85 -50 -108 -100 -21 -46 -23 -75 -9 -127 21
-75 102 -137 179 -138 83 0 167 74 178 157 12 91 -49 189 -132 212 -50 14 -61
13 -108 -4z"/>
<path d="M2136 1226 c-164 -60 -167 -282 -4 -351 106 -44 225 25 244 140 22
140 -112 257 -240 211z"/>
<path d="M2858 1216 c-60 -22 -84 -42 -107 -89 -43 -89 -14 -189 69 -236 58
-33 142 -27 195 13 77 59 95 165 42 245 -41 62 -130 92 -199 67z"/>
</g>
</svg>
