<svg width="26" height="26" viewBox="0 0 26 26" xmlns="http://www.w3.org/2000/svg">
<path d="M12.67 1.69562C12.5888 1.73625 10.0802 4.20929 7.09931 7.19523C1.20868 13.0909 1.55907 12.7101 1.65048 13.1874C1.69618 13.4362 2.00087 13.7409 2.2497 13.7866C2.72704 13.878 2.37665 14.198 7.91181 8.66789L13.0001 3.57961L18.0934 8.66789C23.6235 14.198 23.2731 13.878 23.7505 13.7866C23.9993 13.7409 24.304 13.4362 24.3497 13.1874C24.4411 12.7101 24.7915 13.0909 18.9009 7.19015C15.727 4.01632 13.4165 1.73625 13.32 1.69562C13.1169 1.60929 12.8681 1.60929 12.67 1.69562Z" />
<path d="M4.54474 14.6956C4.33653 14.787 4.12325 15.046 4.08771 15.2492C4.07247 15.3406 4.06739 16.6812 4.07755 18.23C4.09786 21.3988 4.08263 21.2667 4.49396 22.1148C4.89005 22.9273 5.53497 23.5671 6.36778 23.9683C7.21583 24.3745 6.7588 24.3492 12.9998 24.3492C19.2764 24.3492 18.7889 24.3796 19.6775 23.9429C20.7236 23.4249 21.4904 22.4956 21.8205 21.3277C21.9018 21.023 21.9119 20.7589 21.9119 18.0675C21.9119 15.1882 21.9119 15.1374 21.8053 15.0003C21.6072 14.7312 21.4447 14.6499 21.1248 14.6499C20.8049 14.6499 20.6424 14.7312 20.4443 15.0003C20.3428 15.1374 20.3377 15.2085 20.3123 17.9913C20.2869 20.7538 20.2818 20.8554 20.1803 21.1347C19.9213 21.8152 19.3779 22.3585 18.6975 22.6175C18.408 22.7242 18.3826 22.7242 13.1775 22.7394C9.42989 22.7495 7.86075 22.7394 7.64239 22.6988C7.292 22.6327 6.82989 22.4093 6.54552 22.1757C6.28146 21.9574 5.95646 21.4902 5.82442 21.1347C5.71778 20.8554 5.71271 20.7589 5.68732 17.9913C5.66192 15.2085 5.65685 15.1374 5.55528 15.0003C5.49942 14.9242 5.39278 14.8124 5.32169 14.7617C5.15411 14.6347 4.74786 14.5992 4.54474 14.6956Z" />
</svg>
