<?xml version="1.0" standalone="no"?>
<!DOCTYPE svg PUBLIC "-//W3C//DTD SVG 20010904//EN"
 "http://www.w3.org/TR/2001/REC-SVG-20010904/DTD/svg10.dtd">
<svg version="1.0" xmlns="http://www.w3.org/2000/svg"
 width="35" height="30" viewBox="0 0 512.000000 512.000000"
 preserveAspectRatio="xMidYMid meet">

<g transform="translate(0.000000,512.000000) scale(0.100000,-0.100000)"
fill="#000000" stroke="none">
<path d="M2455 4361 c-58 -26 -104 -82 -261 -316 -433 -645 -741 -1208 -871
-1590 -80 -233 -98 -388 -69 -584 84 -570 521 -1018 1086 -1117 144 -25 400
-15 535 20 113 29 179 54 280 104 534 265 834 894 685 1440 -87 318 -300 753
-633 1292 -145 234 -417 640 -461 689 -54 59 -105 81 -186 81 -42 0 -79 -7
-105 -19z m131 -185 c24 -17 254 -355 411 -606 293 -465 502 -869 609 -1175
74 -210 89 -345 58 -526 -79 -460 -439 -827 -897 -914 -104 -20 -311 -19 -417
1 -326 61 -620 279 -778 574 -111 207 -158 473 -117 665 78 369 402 990 908
1743 132 196 176 252 197 252 3 0 15 -6 26 -14z"/>
<path d="M3023 3063 c-30 -6 -73 -59 -73 -90 0 -14 69 -166 154 -337 85 -171
166 -338 180 -372 71 -172 49 -407 -51 -553 -58 -84 -142 -140 -295 -195 -35
-13 -50 -25 -63 -53 -15 -31 -15 -39 -3 -72 9 -23 26 -43 49 -55 l36 -19 84
26 c245 77 415 266 470 522 16 78 17 274 0 349 -7 32 -28 93 -46 135 -59 139
-326 666 -348 687 -24 23 -59 33 -94 27z"/>
</g>
</svg>
