<?xml version="1.0" standalone="no"?>
<!DOCTYPE svg PUBLIC "-//W3C//DTD SVG 20010904//EN"
 "http://www.w3.org/TR/2001/REC-SVG-20010904/DTD/svg10.dtd">
<svg version="1.0" xmlns="http://www.w3.org/2000/svg"
 width="35" height="35" viewBox="0 0 512.000000 512.000000"
 preserveAspectRatio="xMidYMid meet">

<g transform="translate(0.000000,512.000000) scale(0.100000,-0.100000)" stroke="none">
<path d="M3606 4474 c-191 -46 -355 -212 -401 -405 -91 -389 265 -745 654
-654 36 9 94 31 130 50 l65 35 106 -104 c59 -59 117 -107 133 -111 76 -19 141
46 122 122 -4 16 -52 74 -112 135 l-106 107 30 68 c36 79 53 152 53 226 -1
350 -335 613 -674 531z m267 -213 c65 -28 138 -99 172 -168 26 -51 29 -69 30
-148 0 -79 -4 -97 -28 -145 -37 -72 -96 -131 -165 -166 -50 -25 -68 -28 -147
-28 -81 0 -96 3 -150 31 -71 36 -137 104 -167 171 -31 67 -31 207 0 275 41 91
137 171 237 198 49 13 166 3 218 -20z"/>
<path d="M2400 4464 c-491 -58 -867 -233 -1189 -555 -288 -288 -461 -626 -538
-1049 -24 -133 -24 -467 0 -600 77 -423 250 -760 538 -1049 251 -251 540 -414
889 -503 932 -236 1907 275 2245 1177 125 335 155 684 89 1046 l-15 86 -96
-18 c-53 -10 -97 -20 -98 -21 -1 -2 6 -50 16 -108 79 -452 -13 -888 -270
-1272 -77 -115 -221 -273 -328 -360 -580 -472 -1389 -516 -2013 -110 -552 358
-849 1000 -765 1649 92 700 596 1267 1283 1443 284 72 620 63 923 -26 13 -4
21 12 38 80 11 47 21 92 21 100 0 15 -142 52 -290 76 -68 12 -379 21 -440 14z"/>
<path d="M2445 3544 c-368 -60 -649 -340 -706 -704 -30 -193 24 -369 187 -612
115 -170 355 -445 512 -584 73 -66 87 -74 122 -74 34 0 49 9 116 66 41 37 130
126 195 197 271 295 418 510 490 717 30 85 32 271 5 370 -83 301 -294 517
-589 601 -71 20 -265 33 -332 23z m313 -227 c98 -34 171 -80 244 -152 142
-141 213 -349 178 -517 -37 -173 -253 -480 -529 -753 l-91 -90 -101 100 c-260
258 -469 552 -514 725 -29 108 -11 240 49 363 81 168 249 301 429 343 94 21
244 13 335 -19z"/>
<path d="M2492 2909 c-48 -14 -109 -80 -123 -131 -23 -89 12 -182 88 -229 57
-36 154 -34 210 3 62 41 88 90 88 168 0 77 -26 127 -85 166 -43 29 -125 39
-178 23z"/>
</g>
</svg>
