<?xml version="1.0" standalone="no"?>
<!DOCTYPE svg PUBLIC "-//W3C//DTD SVG 20010904//EN"
 "http://www.w3.org/TR/2001/REC-SVG-20010904/DTD/svg10.dtd">
<svg version="1.0" xmlns="http://www.w3.org/2000/svg"
 width="512.000000pt" height="512.000000pt" viewBox="0 0 512.000000 512.000000"
 preserveAspectRatio="xMidYMid meet">

<g transform="translate(0.000000,512.000000) scale(0.100000,-0.100000)"
fill="#000000" stroke="none">
<path d="M1806 3754 c-62 -19 -137 -92 -154 -150 -16 -55 -15 -137 2 -178 19
-47 73 -104 120 -129 58 -30 165 -30 222 0 196 104 170 396 -40 458 -61 18
-87 18 -150 -1z m133 -170 c77 -64 3 -182 -90 -144 -36 15 -49 37 -49 83 0 27
7 41 31 61 17 14 41 26 54 26 13 0 37 -12 54 -26z"/>
<path d="M2685 3570 c-276 -38 -500 -233 -587 -510 -23 -74 -23 -81 -23 -520
0 -439 0 -446 23 -520 64 -202 195 -358 375 -444 105 -50 186 -69 302 -69 364
0 668 277 701 639 8 86 -3 116 -47 135 -22 9 -36 9 -58 0 -36 -16 -48 -41 -55
-121 -21 -230 -190 -426 -416 -481 -288 -70 -593 125 -655 418 -21 98 -21 788
0 886 52 246 275 429 525 431 284 1 520 -213 546 -494 7 -80 19 -105 55 -121
36 -15 81 1 99 36 29 54 -15 267 -77 375 -146 253 -431 398 -708 360z"/>
</g>
</svg>
